<?xml version="1.0" encoding="utf-8"?>
<!-- Generator: Adobe Illustrator 21.0.2, SVG Export Plug-In . SVG Version: 6.00 Build 0)  -->
<svg version="1.1" id="Layer_1" xmlns="http://www.w3.org/2000/svg" xmlns:xlink="http://www.w3.org/1999/xlink" x="0px" y="0px"
	 viewBox="0 0 500 100" style="enable-background:new 0 0 500 100;" xml:space="preserve">
<style type="text/css">
	.st0{opacity:0.8;fill:#7C7C7C;}
	.st1{fill:#232323;}
</style>
<path class="st0" d="M440.3,100H59.8C32.3,100,10,77.7,10,50.3v-0.5C10,22.3,32.3,0,59.8,0h380.5C467.7,0,490,22.3,490,49.8v0.5
	C490,77.7,467.7,100,440.3,100z"/>
<g>
	<path class="st1" d="M164.3,23.7h10.5v52.7h-10.5V23.7z M191,23.7c6.1,0,10.4,4.2,10.4,10.4v7.5c0,3.1-1.2,5.9-4.6,7.9
		c3.7,1.8,5.2,4.8,5.2,7.9V66c0,6.1-4.2,10.4-10.4,10.4h-14.5v-9.8H189c1.6,0,2.5-0.9,2.5-2.5v-7.6c0-2.2-1.3-2.3-3.4-2.3h-11v-9.4
		h11.3c1.9,0,2.5-0.4,2.5-2.5V36c0-1.6-0.9-2.5-2.5-2.5h-11.3v-9.8H191z"/>
	<path class="st1" d="M222.4,23.7v52.7h-10.5V23.7H222.4z M244.5,76.4h-19.9v-10h19.9V76.4z"/>
	<path class="st1" d="M263.1,33.4c-1.6,0-2.5,0.9-2.5,2.5v28.4c0,1.6,0.9,2.5,2.5,2.5h5.1v10h-7.8c-6.1,0-10.4-4.2-10.4-10.4V33.9
		c0-6.1,4.2-10.4,10.4-10.4h7.8v10h-5.1V33.4z M278.1,23.5c6.1,0,10.4,4.2,10.4,10.4v32.5c0,6.1-4.2,10.4-10.4,10.4h-7.7v-10h5
		c1.6,0,2.5-0.9,2.5-2.5V35.9c0-1.6-0.9-2.5-2.5-2.5h-5v-10h7.7V23.5z"/>
	<path class="st1" d="M307.9,76.7c-6.1,0-10.4-4.2-10.4-10.4V33.8c0-6.1,4.2-10.4,10.4-10.4h7.6v10h-5c-1.6,0-2.5,0.9-2.5,2.5v28.4
		c0,1.6,0.9,2.5,2.5,2.5h5v10h-7.6V76.7z M322.6,66.8c1.6,0,2.5-0.9,2.5-2.5v-7.8h-9.7V47h20.2v19.4c0,6.1-4.2,10.4-10.4,10.4h-7.5
		v-10H322.6z M325.3,23.5c6.1,0,10.4,4.2,10.4,10.4v6.9h-10.5V36c0-1.6-0.9-2.5-2.5-2.5h-4.9v-10H325.3z"/>
</g>
</svg>
