<?xml version="1.0" encoding="utf-8"?>
<!-- Generator: Adobe Illustrator 21.0.2, SVG Export Plug-In . SVG Version: 6.00 Build 0)  -->
<svg version="1.1" id="Layer_1" xmlns="http://www.w3.org/2000/svg" xmlns:xlink="http://www.w3.org/1999/xlink" x="0px" y="0px"
	 viewBox="0 0 500 500" style="enable-background:new 0 0 500 500;" xml:space="preserve">
<style type="text/css">
	.st0{opacity:0.8;fill:#7C7C7C;}
	.st1{fill:#232323;}
</style>
<path class="st0" d="M412,500H88c-48.6,0-88-39.4-88-88V88C0,39.4,39.4,0,88,0H412c48.6,0,88,39.4,88,88V412
	C500,460.6,460.6,500,412,500z"/>
<path class="st1" d="M419.6,400.1c-95.4,0-190.9,0-286.3,0c-1.4-0.8-3-1.5-4.4-2.5c-22.3-13.5-35.5-34.3-29.4-62.2
	c3.7,0.3,7.6,0.4,11.5,0.6c21,1,35.7-17.2,28.6-35.7c-4.8-12.6-15.9-16-28-17c-4.3-0.3-8.5,0-12.9,0c0-17.4,0-34,0-50.2
	c8.3-0.8,16-0.8,23.5-2.6c11.1-2.6,19.3-13.9,19.5-24.6c0-11.2-7-20.5-19-23.9c-4.9-1.4-10.2-1.4-15.2-1.9c-2.8-0.3-5.8,0-8.6,0
	c0-17.7,0-34.2,0-50.9c6.4-0.4,12.6-0.6,18.8-1.3c12.8-1.2,21.8-9.7,23.6-21.8c1.7-11.9-3.9-21.2-16.4-25.9
	c-4.9-1.8-10.3-2.5-15.6-3.2c-3.4-0.5-6.7-0.1-10.7-0.1c0-7.1,0.5-13.7-0.1-20c-0.9-8.1,1.9-13.9,9-17.9c89.9,0,179.7,0,269.6,0
	c4,3.7,8,7.5,12,11.2c-0.4,0.6-0.8,1.3-1.2,1.9c7.5,0,15,0.3,22.4-0.1c10.6-0.5,17.5,3.9,20.9,13.9c0,107.4,0,215,0,322.4
	C429.4,394.5,424.6,397.4,419.6,400.1z M170.8,232.2c1.9,0.1,3.6,0.3,5.3,0.3c53.3,0,106.5,0,159.8,0c1.7,0,3.5,0,5.2-0.3
	c10.6-1.2,16.6-7.7,16.6-18.3c0-22.2,0-44.2,0-66.4c0-8.3-4-14.3-11.5-16.8c-3.4-1.2-7.2-1.5-10.7-1.5
	c-53.4,0.1-106.7,0.1-159.9,0.1c-1.7,0-3.2,0.3-4.8,0.4C170.8,164.1,170.8,197.9,170.8,232.2z M387.1,64.3c0,3.5,0,6.2,0,9
	c0,89.6,0,179.3,0,268.8c0,14.6-4.6,19.2-19.3,19.2c-77.8,0-155.5,0-233.3,0c-2.5,0-4.9,0-7.6,0c2.2,7.7,9.5,13,17.8,13
	c80.1,0,160.3,0.1,240.4,0c12.5,0,16.5-4.4,16.5-16.8c0-93.9,0-187.8,0-281.7c0-1.5,0.4-3.1-0.1-4.5c-0.4-1.4-1.4-3.2-2.6-3.7
	C395.4,66.2,391.6,65.4,387.1,64.3z"/>
<path class="st1" d="M68.8,99.6c3.7-6.6,9.3-9.5,16.9-9.2c8.8,0.4,17.5,0,26.4,0.1c8.5,0.1,14.7,5.5,14.7,12.9s-6.2,12.8-14.7,12.9
	c-8.8,0.1-17.7-0.3-26.4,0.1c-7.6,0.4-13.2-2.6-16.9-9.2C68.8,104.8,68.8,102.2,68.8,99.6z"/>
<path class="st1" d="M68.8,306c4-6.7,9.7-9.5,17.7-9.2c8.5,0.5,17.2,0,25.8,0.1c8.6,0.1,14.6,5.4,14.6,12.9
	c0,7.5-5.9,12.8-14.6,12.9c-8.6,0.1-17.2-0.4-25.8,0.1c-8,0.4-13.7-2.5-17.7-9.2C68.8,311.1,68.8,308.6,68.8,306z"/>
<path class="st1" d="M68.8,204.1c4-8,10.3-11.1,19.3-10.4c8.1,0.6,16.3,0,24.5,0.1c8.5,0.1,14.4,5.7,14.3,13.2
	c-0.1,7.2-6.1,12.5-14.3,12.5c-8.1,0.1-16.4-0.4-24.5,0.1c-9,0.8-15.3-2.3-19.3-10.3C68.8,207.6,68.8,205.8,68.8,204.1z"/>
<path class="st1" d="M264.2,168c-18.7,0-37.4,0-56.1,0c-4.6,0-9.2-0.5-9.2-6.3c0-5.8,4.3-6.6,9-6.6c37.4,0,74.8,0,112.1,0
	c4.8,0,9,1,8.9,6.7c-0.1,5.2-4.1,6.3-8.8,6.2C301.6,168,282.9,168,264.2,168z"/>
<path class="st1" d="M263.9,206.7c-18.7,0-37.4,0-56.1,0c-4.8,0-9-0.8-8.9-6.7c0.1-5.4,4.1-6.3,8.6-6.3c37.5,0,75.2,0,112.7,0
	c4.6,0,8.6,1.2,8.6,6.3c0,5.7-4.3,6.6-9,6.6C301.3,206.7,282.6,206.7,263.9,206.7z"/>
<g>
	<path class="st1" d="M164.3,428.7h10.5v52.7h-10.5V428.7z M191,428.7c6.1,0,10.4,4.2,10.4,10.4v7.5c0,3.1-1.2,5.9-4.6,7.9
		c3.7,1.8,5.2,4.8,5.2,7.9v8.6c0,6.1-4.2,10.4-10.4,10.4h-14.5v-9.8h11.9c1.6,0,2.5-0.9,2.5-2.5v-7.6c0-2.2-1.3-2.3-3.4-2.3h-11
		v-9.4h11.3c1.9,0,2.5-0.4,2.5-2.5V441c0-1.6-0.9-2.5-2.5-2.5h-11.3v-9.8H191z"/>
	<path class="st1" d="M222.4,428.7v52.7h-10.5v-52.7H222.4z M244.5,481.4h-19.9v-10h19.9V481.4z"/>
	<path class="st1" d="M263.1,438.4c-1.6,0-2.5,0.9-2.5,2.5v28.4c0,1.6,0.9,2.5,2.5,2.5h5.1v10h-7.8c-6.1,0-10.4-4.2-10.4-10.4v-32.5
		c0-6.1,4.2-10.4,10.4-10.4h7.8v10H263.1z M278.1,428.5c6.1,0,10.4,4.2,10.4,10.4v32.5c0,6.1-4.2,10.4-10.4,10.4h-7.7v-10h5
		c1.6,0,2.5-0.9,2.5-2.5v-28.4c0-1.6-0.9-2.5-2.5-2.5h-5v-10H278.1z"/>
	<path class="st1" d="M307.9,481.7c-6.1,0-10.4-4.2-10.4-10.4v-32.5c0-6.1,4.2-10.4,10.4-10.4h7.6v10h-5c-1.6,0-2.5,0.9-2.5,2.5
		v28.4c0,1.6,0.9,2.5,2.5,2.5h5v10H307.9z M322.6,471.8c1.6,0,2.5-0.9,2.5-2.5v-7.8h-9.7v-9.5h20.2v19.4c0,6.1-4.2,10.4-10.4,10.4
		h-7.5v-10H322.6z M325.3,428.5c6.1,0,10.4,4.2,10.4,10.4v6.9h-10.5v-4.8c0-1.6-0.9-2.5-2.5-2.5h-4.9v-10H325.3z"/>
</g>
</svg>
