<?xml version="1.0" encoding="utf-8"?>
<!-- Generator: Adobe Illustrator 21.0.2, SVG Export Plug-In . SVG Version: 6.00 Build 0)  -->
<svg version="1.1" id="Layer_1" xmlns="http://www.w3.org/2000/svg" xmlns:xlink="http://www.w3.org/1999/xlink" x="0px" y="0px"
	 viewBox="0 0 500 100" style="enable-background:new 0 0 500 100;" xml:space="preserve">
<style type="text/css">
	.st0{opacity:0.8;fill:#7C7C7C;}
	.st1{fill:#232323;}
</style>
<path class="st0" d="M440.3,100H59.8C32.3,100,10,77.7,10,50.3v-0.5C10,22.3,32.3,0,59.8,0h380.5C467.7,0,490,22.3,490,49.8v0.5
	C490,77.7,467.7,100,440.3,100z"/>
<g>
	<path class="st1" d="M116.4,33.6c-1.6,0-2.5,0.9-2.5,2.5v28c0,1.6,0.9,2.5,2.5,2.5h4.5v9.8h-7.1c-6.1,0-10.3-4.2-10.3-10.3V33.9
		c0-6.1,4.2-10.3,10.3-10.3h7.1v9.8h-4.5V33.6z M130.2,23.7c6.1,0,10.3,4.2,10.3,10.3v8.4h-10.4v-6.4c0-1.6-0.9-2.5-2.5-2.5h-4.5
		v-9.8H130.2z M127.6,66.4c1.6,0,2.5-0.9,2.5-2.5v-6.4h10.4v8.4c0,6.1-4.2,10.3-10.3,10.3h-7.1v-9.8H127.6z"/>
	<path class="st1" d="M161.4,33.6c-1.6,0-2.5,0.9-2.5,2.5v28c0,1.6,0.9,2.5,2.5,2.5h5.1v9.8h-7.7c-6.1,0-10.3-4.2-10.3-10.3V33.9
		c0-6.1,4.2-10.3,10.3-10.3h7.7v9.8h-5.1V33.6z M176.2,23.7c6.1,0,10.3,4.2,10.3,10.3v32.1c0,6.1-4.2,10.3-10.3,10.3h-7.6v-9.9h5
		c1.6,0,2.5-0.9,2.5-2.5v-28c0-1.6-0.9-2.5-2.5-2.5h-5v-9.8H176.2z"/>
	<path class="st1" d="M206.4,75.9h-9.7V26.4l9.7,18.1V75.9z M197.5,23.9h10.3l28,52h-10.3L197.5,23.9z M226.9,55.3V24.1h9.7v49.4
		L226.9,55.3z"/>
	<path class="st1" d="M281.7,23.9v9.7h-37.5v-9.7H281.7z M257.8,75.9V35.7h10.4v40.3H257.8z"/>
	<path class="st1" d="M296.7,23.9h0.5l4.5,15.4l-11,36.6h-10.8L296.7,23.9z M311,64.2h-14.8l2.9-9.8h9.1l-8.8-30.5h9.5l16.8,52
		h-11.2L311,64.2z"/>
	<path class="st1" d="M343,33.6c-1.6,0-2.5,0.9-2.5,2.5v28c0,1.6,0.9,2.5,2.5,2.5h4.5v9.8h-7.1c-6.1,0-10.3-4.2-10.3-10.3V33.9
		c0-6.1,4.2-10.3,10.3-10.3h7.1v9.8H343V33.6z M356.9,23.7c6.1,0,10.3,4.2,10.3,10.3v8.4h-10.4v-6.4c0-1.6-0.9-2.5-2.5-2.5h-4.5
		v-9.8H356.9z M354.3,66.4c1.6,0,2.5-0.9,2.5-2.5v-6.4h10.4v8.4c0,6.1-4.2,10.3-10.3,10.3h-7.1v-9.8H354.3z"/>
	<path class="st1" d="M409.5,23.9v9.7H372v-9.7H409.5z M385.5,75.9V35.7h10.4v40.3H385.5z"/>
</g>
</svg>
