<?xml version="1.0" encoding="utf-8"?>
<!-- Generator: Adobe Illustrator 21.0.2, SVG Export Plug-In . SVG Version: 6.00 Build 0)  -->
<svg version="1.1" id="Layer_1" xmlns="http://www.w3.org/2000/svg" xmlns:xlink="http://www.w3.org/1999/xlink" x="0px" y="0px"
	 viewBox="0 0 500 500" style="enable-background:new 0 0 500 500;" xml:space="preserve">
<style type="text/css">
	.st0{opacity:0.8;fill:#7C7C7C;}
	.st1{fill:#232323;}
</style>
<path class="st0" d="M412,500H88c-48.6,0-88-39.4-88-88V88C0,39.4,39.4,0,88,0H412c48.6,0,88,39.4,88,88V412
	C500,460.6,460.6,500,412,500z"/>
<path class="st1" d="M253.2,378c-23.3,0.1-46.6-1-69.8-3.8c-22.6-2.8-44-9.5-64.6-19.3c-29.6-14.1-47.3-37.5-54.8-69
	c-3.7-15.4-5.1-31.1-5.4-46.9c-0.3-15.6,1.1-31.1,5.3-46.2c4.8-17.5,12.8-33.3,24.4-47.3c1.1-1.4,1.4-2.5,0.8-4.2
	c-3.6-11.4-5.3-23.1-5.4-34.9c-0.3-17.6,3.1-34.3,10.8-50.1c0.7-1.4,1.5-1.9,3.1-1.9c19.9,0.1,38.3,5.4,55,16.2
	c9.7,6.3,19.1,13.2,28.6,20c1.1,0.8,2.1,1,3.4,0.8c18.7-4.2,37.7-6.6,56.9-7.3c23.9-0.9,47.5,0.7,70.7,6c4.6,1,7.6,0,11.1-2.7
	c10.9-8.5,22.4-16.2,34.7-22.4c12.7-6.4,26.3-9.5,40.4-10.2c0.1,0,0.1,0,0.2,0c6.2-0.2,6.2-0.2,8.7,5.6c7.6,17.9,10,36.6,8.3,55.9
	c-0.8,8.8-2.5,17.5-5.1,25.9c-0.2,0.7,0,1.8,0.5,2.3c14.5,17.5,23.5,37.5,27.6,59.7c2.3,11.9,2.9,24,2.7,36.2
	c-0.3,16.7-1.9,33.4-6.1,49.7c-4.8,18.5-13.4,34.6-27.6,47.7c-14.7,13.6-31.8,23.1-51,28.8c-14.7,4.3-29.6,6.9-44.7,9
	c-15.5,2.1-31,2.6-46.6,2.9C261.2,378.1,257.2,378,253.2,378z M249.3,356.6c18-0.3,35.9,0,53.8-2.3c13.9-1.7,27.6-4.5,40.8-9.5
	c18.3-6.9,31.7-18.9,39.6-36.9c4.4-9.9,6.1-20.4,6.3-31.2c0.3-14.6-2.5-28.5-10.4-41.2c-10.9-17.4-26.5-26.9-47.1-26.6
	c-11.8,0.2-23.6,1.7-35.3,3.4c-17.8,2.4-35.5,4.7-53.4,3.9c-8.4-0.3-16.9-1-25.2-1.9c-14.7-1.6-29.3-3.7-44-5.3
	c-8.6-1-17.3,0-25.5,2.9c-16.4,6-27,17.9-33.5,33.7c-6.4,15.8-7,32.2-3.2,48.7c4.9,21.6,16.9,38,37.5,47.5
	c18.5,8.6,38.2,12.4,58.4,13.4C221.8,356.1,235.6,356.2,249.3,356.6z"/>
<path class="st1" d="M206,275.1c-0.3,12.6-3.3,24.1-11,34.2c-9.9,12.8-25.2,13.4-36,1.2c-6.3-7.1-9.5-15.6-11.1-24.8
	c-2.2-12.8-1.1-25.2,4.7-37c2.3-4.6,5.4-8.7,9.2-12.1c8.9-8,21.3-7.8,30,0.5c7.5,7.2,11.5,16.2,13,26.3
	C205.4,267.4,205.6,271.3,206,275.1z"/>
<path class="st1" d="M353.5,275.3c-0.5,13-3.8,25-12.2,35.3c-9.1,11.1-24.5,11.5-34.2,1c-7.3-7.9-10.7-17.4-12.2-27.7
	c-1.6-10.8-0.7-21.5,3.6-31.6c2.5-6,6.2-11.3,11-15.8c8.1-7.5,20.1-7.5,28.5,0c7.5,6.6,11.7,15,13.4,24.6
	C352.3,265.7,352.8,270.5,353.5,275.3z"/>
<g>
	<path class="st1" d="M109.9,430.1c-1.6,0-2.5,0.9-2.5,2.5v28c0,1.6,0.9,2.5,2.5,2.5h4.5v9.8h-7.1c-6.1,0-10.3-4.2-10.3-10.3v-32.1
		c0-6.1,4.2-10.3,10.3-10.3h7.1v9.8H109.9z M123.7,420.2c6.1,0,10.3,4.2,10.3,10.3v8.4h-10.4v-6.4c0-1.6-0.9-2.5-2.5-2.5h-4.5v-9.8
		H123.7z M121.1,463c1.6,0,2.5-0.9,2.5-2.5v-6.4H134v8.4c0,6.1-4.2,10.3-10.3,10.3h-7.1V463H121.1z"/>
	<path class="st1" d="M154.9,430.1c-1.6,0-2.5,0.9-2.5,2.5v28c0,1.6,0.9,2.5,2.5,2.5h5.1v9.8h-7.7c-6.1,0-10.3-4.2-10.3-10.3v-32.1
		c0-6.1,4.2-10.3,10.3-10.3h7.7v9.8H154.9z M169.7,420.2c6.1,0,10.3,4.2,10.3,10.3v32.1c0,6.1-4.2,10.3-10.3,10.3h-7.6V463h5
		c1.6,0,2.5-0.9,2.5-2.5v-28c0-1.6-0.9-2.5-2.5-2.5h-5v-9.8H169.7z"/>
	<path class="st1" d="M199.9,472.5h-9.7v-49.5l9.7,18.1V472.5z M191,420.5h10.3l28,52H219L191,420.5z M220.4,451.9v-31.3h9.7V470
		L220.4,451.9z"/>
	<path class="st1" d="M275.2,420.5v9.7h-37.5v-9.7H275.2z M251.3,472.5v-40.3h10.4v40.3H251.3z"/>
	<path class="st1" d="M290.2,420.5h0.5l4.5,15.4l-11,36.6h-10.8L290.2,420.5z M304.5,460.8h-14.8l2.9-9.8h9.1l-8.8-30.5h9.5l16.8,52
		h-11.2L304.5,460.8z"/>
	<path class="st1" d="M336.5,430.1c-1.6,0-2.5,0.9-2.5,2.5v28c0,1.6,0.9,2.5,2.5,2.5h4.5v9.8h-7.1c-6.1,0-10.3-4.2-10.3-10.3v-32.1
		c0-6.1,4.2-10.3,10.3-10.3h7.1v9.8H336.5z M350.4,420.2c6.1,0,10.3,4.2,10.3,10.3v8.4h-10.4v-6.4c0-1.6-0.9-2.5-2.5-2.5h-4.5v-9.8
		H350.4z M347.8,463c1.6,0,2.5-0.9,2.5-2.5v-6.4h10.4v8.4c0,6.1-4.2,10.3-10.3,10.3h-7.1V463H347.8z"/>
	<path class="st1" d="M403,420.5v9.7h-37.5v-9.7H403z M379,472.5v-40.3h10.4v40.3H379z"/>
</g>
</svg>
