<?xml version="1.0" encoding="utf-8"?>
<!-- Generator: Adobe Illustrator 21.0.2, SVG Export Plug-In . SVG Version: 6.00 Build 0)  -->
<svg version="1.1" id="Layer_1" xmlns="http://www.w3.org/2000/svg" xmlns:xlink="http://www.w3.org/1999/xlink" x="0px" y="0px"
	 viewBox="0 0 150 100" style="enable-background:new 0 0 150 100;" xml:space="preserve">
<style type="text/css">
	.st0{opacity:0.8;fill:#7C7C7C;}
	.st1{fill:#232323;}
</style>
<path class="st0" d="M100,100H49.5C22,100-0.3,77.7-0.3,50.3v-0.5C-0.3,22.3,22,0,49.5,0H100c27.5,0,49.8,22.3,49.8,49.8v0.5
	C149.7,77.7,127.4,100,100,100z"/>
<path class="st1" d="M67.8,93.7c0-0.5,0-1,0-1.4c0-8.8,0-17.7,0-26.5c0-2.5-0.4-3-2.9-3c-4.9,0-9.9,0-14.8,0c-2.2,0-2.7,0.5-2.7,2.7
	c0,8.8,0,17.7,0,26.5c0,0.5,0,1,0,1.6c-1.9,0-3.8,0.2-5.6-0.1c-1.4-0.2-2.1-1.6-2.7-2.9c-1.1-2.3-1.3-4.7-1.3-7.1
	c0-13.7,0-27.4,0-41.1c0-0.8,0.2-1.2,1-1.6C50.8,35.1,63,29.1,75.1,23.2c0.4-0.2,1.2-0.2,1.6,0C88.9,28.8,101,34.4,113.1,40
	c0.7,0.3,1,0.7,1,1.5c0,14,0,28.1,0,42.1c0,6.1-4,10.1-10,10.1c-11.7,0-23.5,0-35.2,0C68.6,93.8,68.3,93.8,67.8,93.7z M93.4,78.8
	C93.4,78.8,93.4,78.8,93.4,78.8c0,0.8,0,1.6,0,2.4c0,1.4,0.6,2.1,2,2.2c1.7,0.1,3.4,0.1,5.1,0c1.2-0.1,1.9-0.8,1.9-2
	c0.1-1.7,0.1-3.4,0-5.1c0-1.2-0.7-1.8-1.8-1.9c-1.8-0.1-3.5-0.1-5.3,0c-1.1,0-1.7,0.7-1.8,1.8C93.3,77.1,93.4,77.9,93.4,78.8z
	 M93.4,67.5c0,0.8,0,1.6,0,2.4c0,1.4,0.7,2.1,2,2.1c1.6,0.1,3.3,0.1,4.9,0c1.3-0.1,2-0.7,2-2c0.1-1.6,0.1-3.3,0-4.9c0-1.3-0.7-2-2-2
	c-1.6,0-3.3,0-4.9,0c-1.3,0-2,0.7-2,2.1C93.4,66,93.4,66.7,93.4,67.5z M82,67.4C82,67.4,82,67.4,82,67.4c0,0.8,0,1.6,0,2.5
	c0.1,1.4,0.7,2.1,2,2.1c1.6,0.1,3.3,0.1,4.9,0c1.2,0,1.9-0.7,2-1.9c0.1-1.7,0.1-3.4,0-5.2c0-1.1-0.7-1.8-1.9-1.9
	c-1.7,0-3.4-0.1-5.2,0c-1.2,0-1.8,0.7-1.9,1.9C82,65.8,82,66.6,82,67.4z M86.5,74.4c-0.8,0-1.6,0-2.4,0c-1.4,0.1-2,0.7-2.1,2
	C82,78,82,79.7,82,81.3c0,1.3,0.7,1.9,2,2c1.6,0.1,3.3,0.1,4.9,0c1.2-0.1,1.9-0.7,2-1.9c0.1-1.7,0.1-3.4,0-5.2
	c-0.1-1.2-0.8-1.8-2-1.9C88.1,74.3,87.3,74.4,86.5,74.4z"/>
<path class="st1" d="M102.8,17.9c0.1-0.5,0.2-0.9,0.3-1.3c0.7-2.9,3-4.7,5.6-4.6c2.6,0.1,4.9,2.3,5.2,5.2c0.2,1.7,0.2,3.4,0.2,5.2
	c0,0.7,0.2,1.1,0.9,1.4c4.2,2,8.4,3.9,12.6,6c3.1,1.5,4.3,4.6,3,7.5c-1.1,2.5-4.1,3.9-6.7,3.1c-0.6-0.2-1.2-0.4-1.7-0.7
	c-14.9-7-29.8-14.1-44.6-21.1c-0.9-0.4-1.5-0.4-2.4,0C60.8,25.6,46.4,32.7,32,39.7c-3.2,1.6-6.3,0.8-7.9-1.9
	c-1.5-2.5-0.8-5.8,1.6-7.5c0.5-0.3,1-0.6,1.5-0.9C42.5,22,57.7,14.6,72.9,7.1c2.4-1.2,4.6-1.2,6.9,0c7.2,3.5,14.5,6.9,21.8,10.3
	C101.9,17.6,102.3,17.7,102.8,17.9z"/>
</svg>
