<?xml version="1.0" encoding="utf-8"?>
<!-- Generator: Adobe Illustrator 21.0.2, SVG Export Plug-In . SVG Version: 6.00 Build 0)  -->
<svg version="1.1" id="Layer_1" xmlns="http://www.w3.org/2000/svg" xmlns:xlink="http://www.w3.org/1999/xlink" x="0px" y="0px"
	 viewBox="0 0 500 500" style="enable-background:new 0 0 500 500;" xml:space="preserve">
<style type="text/css">
	.st0{opacity:0.8;fill:#7C7C7C;}
	.st1{fill:#232323;}
</style>
<path class="st0" d="M412,500H88c-48.6,0-88-39.4-88-88V88C0,39.4,39.4,0,88,0H412c48.6,0,88,39.4,88,88V412
	C500,460.6,460.6,500,412,500z"/>
<path class="st1" d="M243.3,417.8c-8.5-1.7-16.8-3.7-24.2-8.3c-11.6-7.2-20.1-17-25-30.3c36.5,0,72.8,0,109.9,0
	c-1.8,3.7-3.3,7.2-5.3,10.4c-9.8,15.6-23.9,24.7-42.1,27.7c-0.5,0.1-0.9,0.4-1.3,0.6C251.3,417.8,247.3,417.8,243.3,417.8z"/>
<path class="st1" d="M105.2,264.3c-0.1,1.3-0.2,2.5-0.2,3.7c0,18.9,0,37.7-0.1,56.6c0,2.7,0.8,4.3,3.1,5.8c7.3,4.6,11,14.2,9.2,22.9
	c-2,9.5-9.2,16.1-19.4,17.7c-8.1,1.3-17.2-3.4-21.7-10.5c-6.3-10.1-3.4-24,6.9-30.7c1.4-0.9,2.3-3.5,2.3-5.3c0.1-30,0.1-60,0.1-90
	c0-8.4,1.6-16.3,6.6-23.4c5.8-8.3,13.8-13.2,23.7-15c0.9-0.2,1.7-0.3,3-0.6c0-1.3,0-2.7,0-4c0-11.7-0.1-23.5,0-35.2
	c0.3-24.3,6.9-47,18.4-68.4c7.3-13.6,16.8-25.3,28.9-34.9c10.6-8.4,22.5-14.2,35.3-18.3c14.7-4.7,29.6-8,45.1-8.7
	c12.2-0.5,24.1,1.5,36,4.2C295,33,307.3,36.9,318.7,43c15.7,8.4,28.4,20.2,38.2,35.1c13.3,20.1,20.7,42.3,23.6,66
	c1,7.9,0.6,16,0.6,23.9c0.1,9.1,0,18.2,0,26.2c6.6,3,13,5.1,18.4,8.6c8.7,5.7,13.8,14.3,14.4,24.7c0.7,14.5,0.5,29,0.5,43.5
	c0.1,17.9,0.1,35.7,0,53.6c0,2.7,0.7,4.3,3.1,5.8c7.3,4.6,11.1,14.5,9.2,23.3c-1.9,9-10,16.1-19.8,17.4c-8.4,1.1-17.3-3.8-21.7-11.3
	c-6-10.3-2.4-23.7,7.3-30c1.2-0.8,2.3-2.7,2.4-4.2c0.2-19.7,0.1-39.5,0.1-59.2c0-0.7-0.3-1.4-0.4-2.1c-3.9,0.9-7.7,1.6-11.4,2.8
	c-1,0.3-2,2.3-2,3.6c-0.1,9.6,0.3,19.3-0.1,28.9c-1.5,36.5-29.2,67.4-65.2,73.1c-3.9,0.6-7.9,0.9-11.9,0.9c-37,0.1-74,0.4-111-0.1
	c-21.5-0.3-39.7-9.3-54.1-25.2c-14.8-16.3-21.3-35.7-20.4-57.8c0.3-6.7,0.1-13.5,0-20.2c0-1.1-0.9-2.8-1.7-3
	C113.2,266,109.3,265.3,105.2,264.3z M302.8,171.6c5.3-0.5,10.2-0.8,15-1.5c12.4-1.9,21.4-10.6,22.7-23c2.3-22.2-3.9-41.9-19.8-57.8
	c-13.5-13.5-31.1-19.4-49.4-23.2c-17.3-3.6-34.5-2.5-51.5,2.1C205.5,72,192,77.6,181,87.6c-15.3,13.9-21.6,32-22.1,52.3
	c-0.2,9.2,2.3,17.5,9.4,24c6.2,5.6,14,7.3,21.9,7.2c11.7-0.2,23.4-1.3,35.1-2.5c12.9-1.3,25.8-3,38.8-1.2
	C277.2,169,290.2,170.2,302.8,171.6z M319.6,230c0.1,6,4.8,10.7,10.7,10.7c5.8,0,10.6-4.9,10.6-10.8c0-6.1-4.9-11-10.9-10.8
	C323.9,219.2,319.5,223.9,319.6,230z M266.2,230c0.1,5.9,4.9,10.8,10.7,10.7c5.9,0,10.9-5.3,10.7-11.2c-0.2-5.9-5.2-10.7-10.9-10.5
	C270.6,219.2,266.1,224,266.2,230z M314.3,229.8c0-5.8-4.8-10.7-10.7-10.8c-5.8-0.1-10.8,4.8-10.9,10.6c-0.1,5.7,4.8,10.9,10.5,11.1
	C309.1,240.9,314.2,235.8,314.3,229.8z"/>
<path class="st1" d="M190.5,152.6c-9.4-0.1-16.7-7.6-16.6-17.1c0.1-9.1,7.9-16.8,16.8-16.7c9.3,0.1,16.8,7.8,16.7,17
	C207.3,145.4,200,152.6,190.5,152.6z"/>
<path class="st1" d="M307.1,152.6c-9.3,0.1-16.6-7.1-16.8-16.5c-0.1-9.5,7.1-17.1,16.5-17.3c9.1-0.1,17,7.6,17.1,16.8
	C324.1,145,316.6,152.5,307.1,152.6z"/>
<g>
	<path class="st1" d="M97.4,481.2v-46.1h9.2v46.1H97.4z M121,435.1c5.4,0,9.1,3.7,9.1,9.1v11.7c0,5.4-3.7,9.1-9.1,9.1h-12.4v-8.7
		h10.1c1.4,0,2.2-0.8,2.2-2.2V446c0-1.4-0.8-2.2-2.2-2.2h-10.1v-8.7H121z"/>
	<path class="st1" d="M146.7,435.1v46.1h-9.2v-46.1H146.7z M161.6,481.2l-7.4-17.1h-5.5v-8.6h10.1c1.4,0,2.2-0.8,2.2-2.2V446
		c0-1.4-0.8-2.2-2.2-2.2h-10.1v-8.7H161c5.4,0,9.1,3.7,9.1,9.1V455c0,4.4-2.4,7.6-6.3,8.7l7.7,17.5H161.6z"/>
	<path class="st1" d="M189.4,443.5c-1.4,0-2.2,0.8-2.2,2.2v24.8c0,1.4,0.8,2.2,2.2,2.2h4.5v8.7h-6.8c-5.4,0-9.1-3.7-9.1-9.1v-28.4
		c0-5.4,3.7-9.1,9.1-9.1h6.8v8.7H189.4z M202.6,434.8c5.4,0,9.1,3.7,9.1,9.1v28.4c0,5.4-3.7,9.1-9.1,9.1h-6.7v-8.7h4.4
		c1.4,0,2.2-0.8,2.2-2.2v-24.8c0-1.4-0.8-2.2-2.2-2.2h-4.4v-8.7H202.6z"/>
	<path class="st1" d="M226.4,481.4c-5.4,0-9.1-3.7-9.1-9.1v-10.1h9.2v8.3c0,1.4,0.8,2.2,2.2,2.2h3.5v8.7H226.4z M237.5,472.7
		c1.4,0,2.2-0.8,2.2-2.2v-35.5h9.2v37.3c0,5.4-3.7,9.1-9.1,9.1h-5.7v-8.7H237.5z"/>
	<path class="st1" d="M258.3,481.2v-46.1h9.2v46.1H258.3z M288.5,443.8h-19v-8.7h19V443.8z M284.5,462h-15v-8.7h15V462z
		 M288.5,481.2h-19v-8.7h19V481.2z"/>
	<path class="st1" d="M306.4,443.5c-1.4,0-2.2,0.8-2.2,2.2v24.8c0,1.4,0.8,2.2,2.2,2.2h4v8.7h-6.3c-5.4,0-9.1-3.7-9.1-9.1v-28.4
		c0-5.4,3.7-9.1,9.1-9.1h6.3v8.7H306.4z M318.7,434.8c5.4,0,9.1,3.7,9.1,9.1v7.4h-9.2v-5.6c0-1.4-0.8-2.2-2.2-2.2h-4v-8.7H318.7z
		 M316.4,472.7c1.4,0,2.2-0.8,2.2-2.2v-5.6h9.2v7.4c0,5.4-3.7,9.1-9.1,9.1h-6.3v-8.7H316.4z"/>
	<path class="st1" d="M365.3,435.1v8.6H332v-8.6H365.3z M344,481.2v-35.7h9.2v35.7H344z"/>
	<path class="st1" d="M391.2,472.7c1.4,0,2.2-0.8,2.2-2.2v-4.9c0-1.4-0.8-1.9-2.2-2.2l-11.9-2.6c-5-1.1-9.2-4.1-9.2-9.2v-7.8
		c0-5.4,3.7-9.1,9.1-9.1h6.2v8.7h-3.9c-1.4,0-2.2,0.8-2.2,2.2v4.4c0,1.4,0.8,1.9,2.2,2.2l11.9,2.6c5,1.1,9.2,4.1,9.2,9.2v8.3
		c0,5.4-3.7,9.1-9.1,9.1h-6.2v-8.7H391.2z M379.1,481.4c-5.4,0-9.1-3.7-9.1-9.1v-5.9h9v4.1c0,1.4,0.8,2.2,2.2,2.2h4.2v8.7H379.1z
		 M392.7,434.8c5.4,0,9.1,3.7,9.1,9.1v5.4h-9v-3.6c0-1.4-0.8-2.2-2.2-2.2h-3.4v-8.7H392.7z"/>
</g>
</svg>
