<?xml version="1.0" encoding="utf-8"?>
<!-- Generator: Adobe Illustrator 21.0.2, SVG Export Plug-In . SVG Version: 6.00 Build 0)  -->
<svg version="1.1" id="Layer_1" xmlns="http://www.w3.org/2000/svg" xmlns:xlink="http://www.w3.org/1999/xlink" x="0px" y="0px"
	 viewBox="0 0 500 100" style="enable-background:new 0 0 500 100;" xml:space="preserve">
<style type="text/css">
	.st0{opacity:0.8;fill:#7C7C7C;enable-background:new    ;}
	.st1{fill:#232323;}
</style>
<path class="st0" d="M443.3,100H59.8C32.3,100,10,77.7,10,50.3v-0.5C10,22.3,32.3,0,59.8,0h383.5C470.7,0,493,22.3,493,49.8v0.5
	C493,77.7,470.7,100,443.3,100z"/>
<g>
	<path class="st1" d="M71.7,77V23.2h10.7V77H71.7z M99.3,23.2c6.3,0,10.6,4.3,10.6,10.6v13.7c0,6.3-4.3,10.6-10.6,10.6H84.8V48h11.8
		c1.6,0,2.6-0.9,2.6-2.6v-9.5c0-1.6-0.9-2.6-2.6-2.6H84.8V23.1L99.3,23.2L99.3,23.2z"/>
	<path class="st1" d="M129.3,23.2V77h-10.7V23.2H129.3z M146.7,77l-8.6-20h-6.4V47h11.8c1.6,0,2.6-0.9,2.6-2.6v-8.5
		c0-1.6-0.9-2.6-2.6-2.6h-11.8V23.1H146c6.3,0,10.6,4.3,10.6,10.6v12.6c0,5.1-2.8,8.9-7.4,10.2l9,20.4h-11.6V77z"/>
	<path class="st1" d="M179.2,32.9c-1.6,0-2.6,0.9-2.6,2.6v29c0,1.6,0.9,2.6,2.6,2.6h5.3v10.2h-7.9c-6.3,0-10.6-4.3-10.6-10.6V33.5
		c0-6.3,4.3-10.6,10.6-10.6h7.9V33L179.2,32.9L179.2,32.9z M194.6,22.7c6.3,0,10.6,4.3,10.6,10.6v33.2c0,6.3-4.3,10.6-10.6,10.6
		h-7.8V67h5.1c1.6,0,2.6-0.9,2.6-2.6v-29c0-1.6-0.9-2.6-2.6-2.6h-5.1V22.7L194.6,22.7L194.6,22.7z"/>
	<path class="st1" d="M222.4,77.2c-6.3,0-10.6-4.3-10.6-10.6V54.7h10.7v9.7c0,1.6,0.9,2.6,2.6,2.6h4.1v10.2
		C229.2,77.2,222.4,77.2,222.4,77.2z M235.4,67.1c1.6,0,2.6-0.9,2.6-2.6V23h10.7v43.6c0,6.3-4.3,10.6-10.6,10.6h-6.7V67L235.4,67.1
		L235.4,67.1z"/>
	<path class="st1" d="M259.7,77V23.2h10.7V77H259.7z M295,33.2h-22.2V23.1H295V33.2z M290.3,54.5h-17.5V44.3h17.5V54.5z M295,77
		h-22.2V66.9H295V77z"/>
	<path class="st1" d="M315.9,32.9c-1.6,0-2.6,0.9-2.6,2.6v29c0,1.6,0.9,2.6,2.6,2.6h4.7v10.2h-7.4c-6.3,0-10.6-4.3-10.6-10.6V33.5
		c0-6.3,4.3-10.6,10.6-10.6h7.4V33L315.9,32.9L315.9,32.9z M330.3,22.7c6.3,0,10.6,4.3,10.6,10.6V42h-10.7v-6.5
		c0-1.6-0.9-2.6-2.6-2.6h-4.7V22.7L330.3,22.7L330.3,22.7z M327.6,67.1c1.6,0,2.6-0.9,2.6-2.6V58h10.7v8.6c0,6.3-4.3,10.6-10.6,10.6
		h-7.4V67.1H327.6L327.6,67.1z"/>
	<path class="st1" d="M384.7,23.2v10h-38.9v-10H384.7z M359.8,77V35.2h10.7v41.7h-10.7V77z"/>
	<path class="st1" d="M415,67.1c1.6,0,2.6-0.9,2.6-2.6v-5.7c0-1.6-0.9-2.2-2.6-2.6l-13.9-3c-5.8-1.3-10.7-4.8-10.7-10.7v-9.1
		c0-6.3,4.3-10.6,10.6-10.6h7.2v10.2h-4.6c-1.6,0-2.6,0.9-2.6,2.6v5.1c0,1.6,0.9,2.2,2.6,2.6l13.9,3c5.8,1.3,10.7,4.8,10.7,10.7v9.7
		c0,6.3-4.3,10.6-10.6,10.6h-7.2V67.1H415z M400.8,77.2c-6.3,0-10.6-4.3-10.6-10.6v-6.9h10.5v4.8c0,1.6,0.9,2.6,2.6,2.6h4.9v10.2
		L400.8,77.2L400.8,77.2z M416.7,22.7c6.3,0,10.6,4.3,10.6,10.6v6.3h-10.5v-4.2c0-1.6-0.9-2.6-2.6-2.6h-4V22.7L416.7,22.7
		L416.7,22.7z"/>
</g>
</svg>
