<?xml version="1.0" encoding="utf-8"?>
<!-- Generator: Adobe Illustrator 21.0.2, SVG Export Plug-In . SVG Version: 6.00 Build 0)  -->
<svg version="1.1" id="Layer_1" xmlns="http://www.w3.org/2000/svg" xmlns:xlink="http://www.w3.org/1999/xlink" x="0px" y="0px"
	 viewBox="0 0 500 100" style="enable-background:new 0 0 500 100;" xml:space="preserve">
<style type="text/css">
	.st0{opacity:0.8;fill:#7C7C7C;enable-background:new    ;}
	.st1{fill:#232323;}
</style>
<path class="st0" d="M441.3,100H60.8C33.3,100,11,77.7,11,50.3v-0.5C11,22.3,33.3,0,60.8,0h380.5C468.7,0,491,22.3,491,49.8v0.5
	C491,77.7,468.7,100,441.3,100z"/>
<g>
	<path class="st1" d="M85.4,66.5c1.6,0,2.4-0.8,2.4-2.4v-5.6c0-1.6-0.8-2.1-2.4-2.4l-13.5-2.9c-5.7-1.2-10.4-4.6-10.4-10.4v-8.8
		c0-6,4.2-10.3,10.3-10.3h7v9.9h-4.5c-1.6,0-2.4,0.8-2.4,2.4v4.9c0,1.6,0.8,2.1,2.4,2.4l13.5,2.9c5.7,1.2,10.4,4.6,10.4,10.4v9.4
		c0,6-4.2,10.3-10.3,10.3h-7v-9.9C80.9,66.5,85.4,66.5,85.4,66.5z M71.8,76.4c-6,0-10.3-4.2-10.3-10.3v-6.6h10.1v4.6
		c0,1.6,0.8,2.4,2.4,2.4h4.7v9.9H71.8z M87.1,23.7c6,0,10.3,4.2,10.3,10.3v6H87.2v-4.1c0-1.6-0.8-2.4-2.4-2.4h-3.9v-9.9h6.2V23.7z"
		/>
	<path class="st1" d="M108.2,24.1h10.4v52.1h-10.4V24.1z M136.6,24.1h10.4v52.1h-10.4V54.5h-15.8v-9.9h15.8V24.1z"/>
	<path class="st1" d="M170.1,33.6c-1.6,0-2.4,0.8-2.4,2.4v28.1c0,1.6,0.8,2.4,2.4,2.4h5.1v9.9h-7.7c-6,0-10.3-4.2-10.3-10.3V34.1
		c0-6,4.2-10.3,10.3-10.3h7.7v9.9h-5.1V33.6z M184.9,23.7c6,0,10.3,4.2,10.3,10.3V66c0,6-4.2,10.3-10.3,10.3h-7.6v-9.9h4.9
		c1.6,0,2.4-0.8,2.4-2.4V35.9c0-1.6-0.8-2.4-2.4-2.4h-4.9v-9.9h7.6V23.7z"/>
	<path class="st1" d="M213.1,76.2l-12.9-52.1h11.1l9.8,52.1H213.1z M240.4,76.2l-8.6-34.3l-8.6,34.3h-0.2l-3.6-18.7l8.3-33.4h8.2
		l12.8,52.1H240.4z M246.2,57.6l6.3-33.5h10.7l-12.7,51.4L246.2,57.6z"/>
	<path class="st1" d="M281,33.6c-1.6,0-2.4,0.8-2.4,2.4v28.1c0,1.6,0.8,2.4,2.4,2.4h4.6v9.9h-7.1c-6,0-10.3-4.2-10.3-10.3V34.1
		c0-6,4.2-10.3,10.3-10.3h7.1v9.9H281V33.6z M295,23.7c6,0,10.3,4.2,10.3,10.3v8.4h-10.4V36c0-1.6-0.8-2.4-2.4-2.4h-4.7v-9.9H295z
		 M292.3,66.5c1.6,0,2.4-0.8,2.4-2.4v-6.4h10.4v8.4c0,6-4.2,10.3-10.3,10.3h-7.1v-9.9H292.3z"/>
	<path class="st1" d="M326.1,24.1h0.5l4.5,15.4l-11,36.7h-10.7L326.1,24.1z M340.5,64.4h-14.8l2.9-9.9h9.2l-8.8-30.5h9.5l16.8,52.1
		H344L340.5,64.4z"/>
	<path class="st1" d="M383.5,66.5c1.6,0,2.4-0.8,2.4-2.4v-5.6c0-1.6-0.8-2.1-2.4-2.4L370,53.3c-5.7-1.2-10.4-4.6-10.4-10.4v-8.8
		c0-6,4.2-10.3,10.3-10.3h7v9.9h-4.5c-1.6,0-2.4,0.8-2.4,2.4v4.9c0,1.6,0.8,2.1,2.4,2.4l13.5,2.9c5.7,1.2,10.4,4.6,10.4,10.4v9.4
		c0,6-4.2,10.3-10.3,10.3h-7v-9.9C379.1,66.5,383.5,66.5,383.5,66.5z M369.9,76.4c-6,0-10.3-4.2-10.3-10.3v-6.6h10.1v4.6
		c0,1.6,0.8,2.4,2.4,2.4h4.7v9.9H369.9z M385.2,23.7c6,0,10.3,4.2,10.3,10.3v6h-10v-4.1c0-1.6-0.8-2.4-2.4-2.4h-3.9v-9.9h6V23.7z"/>
	<path class="st1" d="M406.4,76.2V24.1h10.4v52.1H406.4z M440.5,33.8H419v-9.9h21.5V33.8z M435.9,54.5h-17v-9.9h17V54.5z
		 M440.5,76.2H419v-9.9h21.5V76.2z"/>
</g>
</svg>
