<?xml version="1.0" encoding="utf-8"?>
<!-- Generator: Adobe Illustrator 21.0.2, SVG Export Plug-In . SVG Version: 6.00 Build 0)  -->
<svg version="1.1" id="Layer_1" xmlns="http://www.w3.org/2000/svg" xmlns:xlink="http://www.w3.org/1999/xlink" x="0px" y="0px"
	 viewBox="0 0 500 500" style="enable-background:new 0 0 500 500;" xml:space="preserve">
<style type="text/css">
	.st0{opacity:0.8;fill:#7C7C7C;}
	.st1{fill:#232323;}
</style>
<path class="st0" d="M412,500H88c-48.6,0-88-39.4-88-88V88C0,39.4,39.4,0,88,0H412c48.6,0,88,39.4,88,88V412
	C500,460.6,460.6,500,412,500z"/>
<path class="st1" d="M392.5,43c15.9,5,28.2,13.8,32,31c0.8,3.6,1.2,7.6,1.2,11.4c0,59,0.2,118.2,0,177.2c0,26-16.4,42.3-42.4,42.3
	c-85.4,0-170.6,0-256,0c-26.4,0-42.9-16.4-42.9-42.8c0-56,0-112.1,0-168.1c0-30.5,5.8-39.5,33-50.9C209,43,300.8,43,392.5,43z
	 M255.5,277.1c36.5,0,72.9,0.2,109.4,0c20.1-0.2,32.3-11.6,32.5-29.8c0.2-46.9,0.2-94,0-140.9c0-15.4-10.1-28.7-24.7-32.5
	c-5.3-1.3-10.9-1.7-16.4-1.7c-68-0.2-135.9,0-203.9,0c-3.6,0-7.1,0.3-10.8,0.8c-16.6,2.3-29.2,15.4-29.2,32
	c-0.3,48.1-0.2,96.2,0,144.2c0,10.1,4.8,18.6,14.1,22.7c7.1,3.1,15.3,5.1,23,5.3C184.8,277.2,220.1,277.1,255.5,277.1z"/>
<path class="st1" d="M210.1,416c-9.4-4.8-9.9-6.1-6.6-16.7c5.5-17.9,10.9-35.8,16.7-53.5c2.2-6.6,3.8-12.9-0.3-19.6
	c-1.8-2.8-1.8-6.8-2.8-10.9c25,0,49.4,0,74.8,0c-0.7,3.5-0.3,7-1.8,9.6c-3.6,6.6-2.3,12.9-0.2,19.6c6,18.1,11.3,36.3,16.9,54.4
	c3.5,11.3,3,12.4-7,17.2c-2.2,0-4.5,0-6.6,0c-2.7-5.5-6-10.9-8-16.7c-5.6-16.7-10.6-33.8-15.4-49.4c-10.6,0-19.7,0-29.2,0
	c-5.8,18.7-11.4,37.3-17.4,55.9c-1.2,3.6-4.1,6.8-6.3,10.1C214.6,416,212.3,416,210.1,416z"/>
<path class="st1" d="M253.1,251.9c-30.2,0-60.2,0-90.3,0c-19.1,0-30-12.8-27.4-31.8c0.2-1.8,1-4,2.3-5
	c13.8-11.1,27.2-22.4,41.4-32.7c10.3-7.5,20.7-5.8,30.2,2.7c8.6,7.8,17.4,15.4,26,23c1.7,1.5,3.3,2.8,5.1,4.3
	c13.9,10.8,19.6,10.1,29-5.1c9.9-16.2,19.1-33,29.2-48.9c4.8-7.6,10.9-14.6,17.1-21.2c4.5-4.8,9.9-5.5,15.4-0.8
	c12.3,10.3,24.9,20.2,36.8,30.7c2.3,2,3.8,6.1,3.8,9.3c0.3,16.1,0.3,32,0.2,48.1c-0.2,17.9-10.1,27.7-27.9,27.7
	C313.9,252,283.6,251.9,253.1,251.9z"/>
<path class="st1" d="M253.9,102c-15.4,10.3-19.7,19.9-14.8,31.3c5,11.3,14.4,14.8,30.7,11.3c-5.5,16.1-23.2,24.4-40,18.9
	c-17.1-5.5-26.5-24.5-20.9-41.9C214.6,103.5,233,95.2,253.9,102z"/>
<g>
	<path class="st1" d="M118.3,470.4c1.3,0,2-0.7,2-2v-4.6c0-1.3-0.7-1.7-2-2l-11.2-2.4c-4.7-1-8.6-3.8-8.6-8.6v-7.3
		c0-5,3.5-8.5,8.5-8.5h5.8v8.2h-3.7c-1.3,0-2,0.7-2,2v4.1c0,1.3,0.7,1.7,2,2l11.2,2.4c4.7,1,8.6,3.8,8.6,8.6v7.8
		c0,5-3.5,8.5-8.5,8.5h-5.8v-8.2H118.3z M107,478.6c-5,0-8.5-3.5-8.5-8.5v-5.5h8.4v3.8c0,1.3,0.7,2,2,2h3.9v8.2H107z M119.7,434.9
		c5,0,8.5,3.5,8.5,8.5v5h-8.4v-3.4c0-1.3-0.7-2-2-2h-3.2v-8.2H119.7z"/>
	<path class="st1" d="M137.2,435.2h8.6v43.2h-8.6V435.2z M160.7,435.2h8.6v43.2h-8.6v-18h-13.1v-8.2h13.1V435.2z"/>
	<path class="st1" d="M188.5,443.1c-1.3,0-2,0.7-2,2v23.3c0,1.3,0.7,2,2,2h4.2v8.2h-6.4c-5,0-8.5-3.5-8.5-8.5v-26.6
		c0-5,3.5-8.5,8.5-8.5h6.4v8.2H188.5z M200.8,434.9c5,0,8.5,3.5,8.5,8.5v26.6c0,5-3.5,8.5-8.5,8.5h-6.3v-8.2h4.1c1.3,0,2-0.7,2-2
		v-23.3c0-1.3-0.7-2-2-2h-4.1v-8.2H200.8z"/>
	<path class="st1" d="M224.1,478.4l-10.7-43.2h9.2l8.1,43.2H224.1z M246.8,478.4l-7.1-28.4l-7.1,28.4h-0.2l-3-15.5l6.9-27.7h6.8
		l10.6,43.2H246.8z M251.6,463l5.2-27.8h8.9l-10.5,42.6L251.6,463z"/>
	<path class="st1" d="M280.4,443.1c-1.3,0-2,0.7-2,2v23.3c0,1.3,0.7,2,2,2h3.8v8.2h-5.9c-5,0-8.5-3.5-8.5-8.5v-26.6
		c0-5,3.5-8.5,8.5-8.5h5.9v8.2H280.4z M292,434.9c5,0,8.5,3.5,8.5,8.5v7h-8.6v-5.3c0-1.3-0.7-2-2-2H286v-8.2H292z M289.8,470.4
		c1.3,0,2-0.7,2-2v-5.3h8.6v7c0,5-3.5,8.5-8.5,8.5H286v-8.2H289.8z"/>
	<path class="st1" d="M317.8,435.2h0.4l3.7,12.8l-9.1,30.4h-8.9L317.8,435.2z M329.7,468.6h-12.3l2.4-8.2h7.6l-7.3-25.3h7.9
		l13.9,43.2h-9.3L329.7,468.6z"/>
	<path class="st1" d="M365.4,470.4c1.3,0,2-0.7,2-2v-4.6c0-1.3-0.7-1.7-2-2l-11.2-2.4c-4.7-1-8.6-3.8-8.6-8.6v-7.3
		c0-5,3.5-8.5,8.5-8.5h5.8v8.2h-3.7c-1.3,0-2,0.7-2,2v4.1c0,1.3,0.7,1.7,2,2l11.2,2.4c4.7,1,8.6,3.8,8.6,8.6v7.8
		c0,5-3.5,8.5-8.5,8.5h-5.8v-8.2H365.4z M354.1,478.6c-5,0-8.5-3.5-8.5-8.5v-5.5h8.4v3.8c0,1.3,0.7,2,2,2h3.9v8.2H354.1z
		 M366.8,434.9c5,0,8.5,3.5,8.5,8.5v5H367v-3.4c0-1.3-0.7-2-2-2h-3.2v-8.2H366.8z"/>
	<path class="st1" d="M384.3,478.4v-43.2h8.6v43.2H384.3z M412.6,443.3h-17.8v-8.2h17.8V443.3z M408.8,460.4h-14.1v-8.2h14.1V460.4z
		 M412.6,478.4h-17.8v-8.2h17.8V478.4z"/>
</g>
</svg>
